<mxfile host="app.diagrams.net" agent="Mozilla/5.0 (Macintosh; Intel Mac OS X 10_15_7) AppleWebKit/537.36 (KHTML, like Gecko) Chrome/133.0.0.0 Safari/537.36" version="26.0.14">
  <diagram id="R2lEEEUBdFMjLlhIrx00" name="Page-1">
    <mxGraphModel dx="531" dy="336" grid="1" gridSize="10" guides="1" tooltips="1" connect="1" arrows="1" fold="1" page="1" pageScale="1" pageWidth="850" pageHeight="1100" math="0" shadow="0" extFonts="Permanent Marker^https://fonts.googleapis.com/css?family=Permanent+Marker">
      <root>
        <mxCell id="0" />
        <mxCell id="1" parent="0" />
        <mxCell id="BVBf3bqGnrEAuVr3xRH2-43" value="" style="shape=internalStorage;whiteSpace=wrap;html=1;backgroundOutline=1;dx=20;dy=20;" vertex="1" parent="1">
          <mxGeometry x="240" y="160" width="120" height="170" as="geometry" />
        </mxCell>
        <mxCell id="BVBf3bqGnrEAuVr3xRH2-45" value="ユーザーデータ" style="rounded=0;whiteSpace=wrap;html=1;" vertex="1" parent="1">
          <mxGeometry x="240" y="140" width="120" height="20" as="geometry" />
        </mxCell>
        <mxCell id="BVBf3bqGnrEAuVr3xRH2-47" value="PK" style="text;html=1;align=center;verticalAlign=middle;whiteSpace=wrap;rounded=0;" vertex="1" parent="1">
          <mxGeometry x="240" y="160" width="20" height="20" as="geometry" />
        </mxCell>
        <mxCell id="BVBf3bqGnrEAuVr3xRH2-48" value="user_id" style="text;html=1;align=left;verticalAlign=middle;whiteSpace=wrap;rounded=0;" vertex="1" parent="1">
          <mxGeometry x="260" y="160" width="100" height="20" as="geometry" />
        </mxCell>
        <mxCell id="BVBf3bqGnrEAuVr3xRH2-49" value="password" style="text;html=1;align=left;verticalAlign=middle;whiteSpace=wrap;rounded=0;" vertex="1" parent="1">
          <mxGeometry x="260" y="180" width="100" height="20" as="geometry" />
        </mxCell>
        <mxCell id="BVBf3bqGnrEAuVr3xRH2-51" value="post" style="text;html=1;align=left;verticalAlign=middle;whiteSpace=wrap;rounded=0;" vertex="1" parent="1">
          <mxGeometry x="260" y="200" width="100" height="20" as="geometry" />
        </mxCell>
        <mxCell id="BVBf3bqGnrEAuVr3xRH2-52" value="tell_number" style="text;html=1;align=left;verticalAlign=middle;whiteSpace=wrap;rounded=0;" vertex="1" parent="1">
          <mxGeometry x="260" y="240" width="100" height="20" as="geometry" />
        </mxCell>
        <mxCell id="BVBf3bqGnrEAuVr3xRH2-53" value="mail_address" style="text;html=1;align=left;verticalAlign=middle;whiteSpace=wrap;rounded=0;" vertex="1" parent="1">
          <mxGeometry x="260" y="260" width="100" height="20" as="geometry" />
        </mxCell>
      </root>
    </mxGraphModel>
  </diagram>
</mxfile>
